REM DIRINDEX 1\2\5,1\2\6,1\2\7,1\2\8,1\3\9,1\3\10,1\3\11,1\4\12,1\4\13,1\4\14,1\4\15,1\4\16
REM DIRNAME cjc034,folder01,folder02,folder03,folder04,folder05,folder06,folder07,folder08,folder09,folder10,folder11,folder12,folder13,folder14,folder15
TITLE ""
FILE "1200_sec01_0001_0008.mp3" MP3
  TRACK 01 AUDIO
    TITLE "0:"
    INDEX 01 00:00:00
  TRACK 02 AUDIO
    TITLE "16:cjc034_03625"
    INDEX 01 00:03:25
  TRACK 03 AUDIO
    TITLE "0:"
    INDEX 01 00:07:74
  TRACK 04 AUDIO
    TITLE "16:cjc034_03626"
    INDEX 01 00:08:46
  TRACK 05 AUDIO
    TITLE "0:"
    INDEX 01 00:10:25
  TRACK 06 AUDIO
    TITLE "12:cjc034_03627"
    INDEX 01 00:11:27
  TRACK 07 AUDIO
    TITLE "0:"
    INDEX 01 00:12:48
  TRACK 08 AUDIO
    TITLE "13:cjc034_03628"
    INDEX 01 00:13:06
  TRACK 09 AUDIO
    TITLE "0:"
    INDEX 01 00:14:21
  TRACK 10 AUDIO
    TITLE "14:cjc034_03629"
    INDEX 01 00:14:56
  TRACK 11 AUDIO
    TITLE "0:"
    INDEX 01 00:16:02
  TRACK 12 AUDIO
    TITLE "15:cjc034_03630"
    INDEX 01 00:16:36
  TRACK 13 AUDIO
    TITLE "0:"
    INDEX 01 00:19:16
  TRACK 14 AUDIO
    TITLE "12:cjc034_03631"
    INDEX 01 00:20:59
  TRACK 15 AUDIO
    TITLE "0:"
    INDEX 01 00:22:05
  TRACK 16 AUDIO
    TITLE "13:cjc034_03632"
    INDEX 01 00:22:38
  TRACK 17 AUDIO
    TITLE "0:"
    INDEX 01 00:23:57
  TRACK 18 AUDIO
    TITLE "14:cjc034_03633"
    INDEX 01 00:24:14
  TRACK 19 AUDIO
    TITLE "0:"
    INDEX 01 00:25:35
  TRACK 20 AUDIO
    TITLE "15:cjc034_03634"
    INDEX 01 00:25:68
  TRACK 21 AUDIO
    TITLE "0:"
    INDEX 01 00:29:09
  TRACK 22 AUDIO
    TITLE "12:cjc034_03635"
    INDEX 01 00:30:42
  TRACK 23 AUDIO
    TITLE "0:"
    INDEX 01 00:31:51
  TRACK 24 AUDIO
    TITLE "13:cjc034_03636"
    INDEX 01 00:32:11
  TRACK 25 AUDIO
    TITLE "0:"
    INDEX 01 00:34:18
  TRACK 26 AUDIO
    TITLE "14:cjc034_03637"
    INDEX 01 00:34:51
  TRACK 27 AUDIO
    TITLE "0:"
    INDEX 01 00:35:63
  TRACK 28 AUDIO
    TITLE "15:cjc034_03638"
    INDEX 01 00:36:19
  TRACK 29 AUDIO
    TITLE "0:"
    INDEX 01 00:39:11
  TRACK 30 AUDIO
    TITLE "12:cjc034_03639"
    INDEX 01 00:40:44
  TRACK 31 AUDIO
    TITLE "0:"
    INDEX 01 00:41:57
  TRACK 32 AUDIO
    TITLE "13:cjc034_03640"
    INDEX 01 00:42:18
  TRACK 33 AUDIO
    TITLE "0:"
    INDEX 01 00:44:24
  TRACK 34 AUDIO
    TITLE "14:cjc034_03641"
    INDEX 01 00:44:58
  TRACK 35 AUDIO
    TITLE "0:"
    INDEX 01 00:45:71
  TRACK 36 AUDIO
    TITLE "15:cjc034_03642"
    INDEX 01 00:46:29
  TRACK 37 AUDIO
    TITLE "0:"
    INDEX 01 00:48:71
  TRACK 38 AUDIO
    TITLE "12:cjc034_03643"
    INDEX 01 00:50:39
  TRACK 39 AUDIO
    TITLE "0:"
    INDEX 01 00:51:42
  TRACK 40 AUDIO
    TITLE "13:cjc034_03644"
    INDEX 01 00:51:73
  TRACK 41 AUDIO
    TITLE "0:"
    INDEX 01 00:53:09
  TRACK 42 AUDIO
    TITLE "14:cjc034_03645"
    INDEX 01 00:53:51
  TRACK 43 AUDIO
    TITLE "0:"
    INDEX 01 00:54:48
  TRACK 44 AUDIO
    TITLE "15:cjc034_03646"
    INDEX 01 00:55:10
  TRACK 45 AUDIO
    TITLE "0:"
    INDEX 01 00:58:20
  TRACK 46 AUDIO
    TITLE "12:cjc034_03647"
    INDEX 01 00:59:59
  TRACK 47 AUDIO
    TITLE "0:"
    INDEX 01 01:00:62
  TRACK 48 AUDIO
    TITLE "13:cjc034_03648"
    INDEX 01 01:01:21
  TRACK 49 AUDIO
    TITLE "0:"
    INDEX 01 01:03:31
  TRACK 50 AUDIO
    TITLE "14:cjc034_03649"
    INDEX 01 01:03:69
  TRACK 51 AUDIO
    TITLE "0:"
    INDEX 01 01:04:72
  TRACK 52 AUDIO
    TITLE "15:cjc034_03650"
    INDEX 01 01:05:30
  TRACK 53 AUDIO
    TITLE "0:"
    INDEX 01 01:08:38
  TRACK 54 AUDIO
    TITLE "12:cjc034_03651"
    INDEX 01 01:09:71
  TRACK 55 AUDIO
    TITLE "0:"
    INDEX 01 01:11:03
  TRACK 56 AUDIO
    TITLE "13:cjc034_03652"
    INDEX 01 01:11:35
  TRACK 57 AUDIO
    TITLE "0:"
    INDEX 01 01:12:28
  TRACK 58 AUDIO
    TITLE "14:cjc034_03653"
    INDEX 01 01:12:62
  TRACK 59 AUDIO
    TITLE "0:"
    INDEX 01 01:13:69
  TRACK 60 AUDIO
    TITLE "15:cjc034_03654"
    INDEX 01 01:14:27
  TRACK 61 AUDIO
    TITLE "0:"
    INDEX 01 01:17:37
  TRACK 62 AUDIO
    TITLE "12:cjc034_03655"
    INDEX 01 01:18:72
  TRACK 63 AUDIO
    TITLE "0:"
    INDEX 01 01:20:02
  TRACK 64 AUDIO
    TITLE "13:cjc034_03656"
    INDEX 01 01:20:34
  TRACK 65 AUDIO
    TITLE "0:"
    INDEX 01 01:21:27
  TRACK 66 AUDIO
    TITLE "14:cjc034_03657"
    INDEX 01 01:21:57
  TRACK 67 AUDIO
    TITLE "0:"
    INDEX 01 01:22:60
  TRACK 68 AUDIO
    TITLE "15:cjc034_03658"
    INDEX 01 01:23:20
  TRACK 69 AUDIO
    TITLE "0:"
    INDEX 01 01:27:12
